<svg width="40" height="40" viewBox="0 0 40 40" fill="none" xmlns="http://www.w3.org/2000/svg">
<path d="M37.7778 40H6.66667C4.89856 40 3.20286 39.3679 1.95262 38.2426C0.702379 37.1174 0 35.5913 0 34V6C0 4.4087 0.702379 2.88258 1.95262 1.75736C3.20286 0.632141 4.89856 0 6.66667 0H37.7778C38.3671 0 38.9324 0.210714 39.3491 0.585786C39.7659 0.960859 40 1.46957 40 2V38C40 38.5304 39.7659 39.0391 39.3491 39.4142C38.9324 39.7893 38.3671 40 37.7778 40ZM35.5556 36V32H6.66667C6.0773 32 5.51207 32.2107 5.09532 32.5858C4.67857 32.9609 4.44444 33.4696 4.44444 34C4.44444 34.5304 4.67857 35.0391 5.09532 35.4142C5.51207 35.7893 6.0773 36 6.66667 36H35.5556ZM4.44444 28.34C5.14 28.12 5.88889 28 6.66667 28H35.5556V4H6.66667C6.0773 4 5.51207 4.21071 5.09532 4.58579C4.67857 4.96086 4.44444 5.46957 4.44444 6V28.34ZM20 16C18.8213 16 17.6908 15.5786 16.8573 14.8284C16.0238 14.0783 15.5556 13.0609 15.5556 12C15.5556 10.9391 16.0238 9.92172 16.8573 9.17157C17.6908 8.42143 18.8213 8 20 8C21.1787 8 22.3092 8.42143 23.1427 9.17157C23.9762 9.92172 24.4444 10.9391 24.4444 12C24.4444 13.0609 23.9762 14.0783 23.1427 14.8284C22.3092 15.5786 21.1787 16 20 16ZM13.3333 24C13.3333 22.4087 14.0357 20.8826 15.286 19.7574C16.5362 18.6321 18.2319 18 20 18C21.7681 18 23.4638 18.6321 24.714 19.7574C25.9643 20.8826 26.6667 22.4087 26.6667 24H13.3333Z" fill="white"/>
</svg>
