<svg width="46" height="46" viewBox="0 0 46 46" fill="none" xmlns="http://www.w3.org/2000/svg">
<path d="M28.405 8.165C28.0243 8.84673 27.6851 9.55079 27.3891 10.2733C24.4811 9.81343 21.5188 9.81343 18.6108 10.2733C18.3148 9.55079 17.9756 8.84673 17.595 8.165C14.8556 8.63305 12.1927 9.47128 9.67913 10.6567C5.18443 17.1432 3.14605 25.0182 3.92913 32.8708C6.85825 35.0728 10.1458 36.7522 13.6466 37.835C14.4438 36.782 15.1552 35.6667 15.7741 34.5C14.6319 34.0789 13.5341 33.546 12.4966 32.9092C12.7812 32.7198 13.0503 32.5083 13.3016 32.2767C16.327 33.7339 19.6419 34.4907 23 34.4907C26.358 34.4907 29.6729 33.7339 32.6983 32.2767C32.9666 32.5067 33.235 32.7175 33.5033 32.9092C32.4602 33.541 31.3634 34.0797 30.2258 34.5192C30.819 35.7124 31.5114 36.8536 32.2958 37.9308C35.7923 36.8518 39.0741 35.172 41.9941 32.9667C42.796 25.1126 40.756 17.2312 36.2441 10.7525C33.7588 9.54258 31.1222 8.67229 28.405 8.165ZM16.6366 28.3858C15.6775 28.317 14.7823 27.8792 14.1391 27.1645C13.4958 26.4497 13.1544 25.5136 13.1866 24.5525C13.1496 23.5902 13.4892 22.6513 14.1335 21.9355C14.7777 21.2197 15.6757 20.7833 16.6366 20.7192C17.5975 20.7833 18.4955 21.2197 19.1398 21.9355C19.784 22.6513 20.1237 23.5902 20.0866 24.5525C20.1237 25.5148 19.784 26.4537 19.1398 27.1695C18.4955 27.8853 17.5975 28.3217 16.6366 28.3858ZM29.3633 28.3858C28.4042 28.317 27.509 27.8792 26.8657 27.1645C26.2225 26.4497 25.8811 25.5136 25.9133 24.5525C25.8762 23.5902 26.2159 22.6513 26.8602 21.9355C27.5044 21.2197 28.4024 20.7833 29.3633 20.7192C30.326 20.7785 31.2269 21.2135 31.8721 21.9304C32.5173 22.6473 32.8553 23.5889 32.8133 24.5525C32.8553 25.5161 32.5173 26.4577 31.8721 27.1746C31.2269 27.8915 30.326 28.3265 29.3633 28.3858Z" fill="white"/>
</svg>
