<svg width="67" height="100" viewBox="0 0 67 100" fill="none" xmlns="http://www.w3.org/2000/svg">
<g clip-path="url(#clip0_1_38)">
<path d="M33.5 50C33.5 45.5797 35.2647 41.3405 38.406 38.2149C41.5472 35.0893 45.8076 33.3333 50.25 33.3333C54.6924 33.3333 58.9528 35.0893 62.094 38.2149C65.2353 41.3405 67 45.5797 67 50C67 54.4203 65.2353 58.6595 62.094 61.7851C58.9528 64.9107 54.6924 66.6667 50.25 66.6667C45.8076 66.6667 41.5472 64.9107 38.406 61.7851C35.2647 58.6595 33.5 54.4203 33.5 50Z" fill="#1ABCFE"/>
<path d="M0 83.3333C0 78.913 1.76473 74.6738 4.90596 71.5482C8.0472 68.4226 12.3076 66.6667 16.75 66.6667H33.5V83.3333C33.5 87.7536 31.7353 91.9928 28.594 95.1184C25.4528 98.244 21.1924 100 16.75 100C12.3076 100 8.0472 98.244 4.90596 95.1184C1.76473 91.9928 0 87.7536 0 83.3333H0Z" fill="#0ACF83"/>
<path d="M33.5 0V33.3333H50.25C54.6924 33.3333 58.9528 31.5774 62.094 28.4518C65.2353 25.3262 67 21.0869 67 16.6667C67 12.2464 65.2353 8.00716 62.094 4.88155C58.9528 1.75595 54.6924 0 50.25 0L33.5 0Z" fill="#FF7262"/>
<path d="M0 16.6667C0 21.0869 1.76473 25.3262 4.90596 28.4518C8.0472 31.5774 12.3076 33.3333 16.75 33.3333H33.5V0H16.75C12.3076 0 8.0472 1.75595 4.90596 4.88155C1.76473 8.00716 0 12.2464 0 16.6667H0Z" fill="#F24E1E"/>
<path d="M0 50C0 54.4203 1.76473 58.6595 4.90596 61.7851C8.0472 64.9107 12.3076 66.6667 16.75 66.6667H33.5V33.3333H16.75C12.3076 33.3333 8.0472 35.0893 4.90596 38.2149C1.76473 41.3405 0 45.5797 0 50H0Z" fill="#A259FF"/>
</g>
<defs>
<clipPath id="clip0_1_38">
<rect width="67" height="100" fill="white"/>
</clipPath>
</defs>
</svg>
