<svg width="35" height="37" viewBox="0 0 35 37" fill="none" xmlns="http://www.w3.org/2000/svg">
<path d="M13.1072 33.2055C13.1069 32.9585 12.9972 32.7242 12.8077 32.5659C12.6167 32.4097 12.3674 32.3438 12.1241 32.3852C9.47277 32.8767 6.11014 32.8832 5.13358 30.1407C4.53289 28.6749 3.57027 27.3852 2.33573 26.3924C2.08019 26.2613 1.84989 26.0862 1.65539 25.8749C1.58968 25.4734 1.24351 25.1782 0.836706 25.1765H0.833348C0.374466 25.1765 0.00184599 25.5476 1.49853e-05 26.0066C-0.00486785 26.9571 1.18491 27.6684 1.53647 27.8556C2.41986 28.649 3.11535 29.6294 3.57271 30.7251C4.15376 32.3576 5.9246 34.8837 11.4438 34.1789C11.4487 34.786 11.4568 35.1001 11.4633 35.3394L11.4715 35.8309C11.4715 36.2911 11.8446 36.6643 12.3048 36.6643C12.765 36.6643 13.1381 36.2911 13.1381 35.8309L13.13 35.2937C13.1202 34.9584 13.1072 34.4751 13.1072 33.2055ZM31.8865 7.13617C31.8361 7.0727 31.7823 7.00597 31.727 6.93923C31.8389 6.58696 31.9269 6.22756 31.9907 5.86349C32.2487 4.07485 32.0199 2.2497 31.3282 0.580083C31.2371 0.350693 31.0486 0.173589 30.8139 0.0967863C30.5779 0.0186613 28.4246 -0.560766 23.9308 2.39985C20.1658 1.44281 16.2212 1.44281 12.4562 2.39985C7.96398 -0.526586 5.82368 0.0219165 5.58605 0.0919035C5.3469 0.167384 5.15403 0.345911 5.06034 0.578557C4.35609 2.2734 4.12874 4.12846 4.40279 5.94314C4.46657 6.27588 4.54754 6.60507 4.6453 6.92947C4.58671 7.00118 4.53137 7.0727 4.47928 7.14268C3.06835 8.93274 2.31762 11.1545 2.35363 13.4335C2.34956 13.9503 2.37347 14.467 2.42525 14.9813C2.99165 22.7548 8.0063 24.9179 12.3375 25.6568C12.0554 26.1625 11.8445 26.7047 11.7107 27.2681C11.6011 27.7148 11.8743 28.1659 12.3211 28.2756C12.7679 28.3853 13.2189 28.112 13.3286 27.6652C13.4828 26.8992 13.8698 26.1994 14.4369 25.6617C14.7836 25.3583 14.8189 24.8313 14.5156 24.4845C14.3789 24.3284 14.189 24.2287 13.9828 24.205C9.38814 23.6841 4.61926 22.1656 4.0853 14.83C4.0382 14.366 4.01654 13.8998 4.0203 13.4335C3.98887 11.5205 4.61895 9.6554 5.80415 8.15343C5.92948 7.98416 6.06945 7.82953 6.2078 7.67654C6.41908 7.44338 6.48144 7.11115 6.36893 6.81716C6.22672 6.44129 6.11828 6.05351 6.04504 5.65831C5.84545 4.31849 5.97851 2.95018 6.43241 1.67393C8.41168 1.94951 10.2809 2.75039 11.8457 3.99327C12.0477 4.12958 12.2996 4.17007 12.5342 4.10395C16.2416 3.09809 20.1501 3.09809 23.8574 4.10395C24.0933 4.16987 24.3462 4.12877 24.5491 3.99164C26.1029 2.73595 27.9714 1.93028 29.9512 1.66254C30.3998 2.91956 30.5355 4.26701 30.3467 5.58832C30.273 6.00824 30.158 6.41993 30.0033 6.81716C29.8908 7.11115 29.953 7.44328 30.1644 7.67654C30.3109 7.83767 30.4574 8.01834 30.5859 8.17947C31.7739 9.66984 32.4048 11.5279 32.3699 13.4335C32.3738 13.9102 32.3504 14.3867 32.2999 14.8609C31.771 22.1623 26.9842 23.6809 22.3715 24.205C21.9139 24.2575 21.5854 24.6712 21.638 25.1289C21.6617 25.335 21.7613 25.5249 21.9174 25.6616C22.492 26.2031 22.8767 26.9154 23.0145 27.6928C23.1565 28.2417 23.2228 28.8074 23.2114 29.3741V33.4725C23.1936 34.5988 23.1936 35.4436 23.1936 35.8308C23.1942 36.291 23.5678 36.6637 24.028 36.663C24.4873 36.6623 24.8595 36.2901 24.8602 35.8308C24.8602 35.4467 24.8602 34.6118 24.878 33.4855V29.3741C24.8912 28.6684 24.8073 27.9641 24.6291 27.281C24.5037 26.7131 24.2977 26.1661 24.0171 25.6567C28.3645 24.9194 33.3986 22.7579 33.9602 15.0154C34.0153 14.4899 34.0409 13.9617 34.0367 13.4334C34.0746 11.148 33.3142 8.92105 31.8865 7.13617Z" fill="white"/>
</svg>
