<svg width="40" height="40" viewBox="0 0 40 40" fill="none" xmlns="http://www.w3.org/2000/svg">
<path d="M4.44444 40H35.5555C36.7343 40 37.8647 39.5786 38.6982 38.8285C39.5317 38.0784 40 37.061 40 36.0002V18.0009C40.0017 17.7377 39.9456 17.4768 39.835 17.2331C39.7244 16.9894 39.5615 16.7678 39.3555 16.5809L21.5778 0.581562C21.1614 0.209075 20.5982 0 20.0111 0C19.424 0 18.8608 0.209075 18.4444 0.581562L0.666666 16.5809C0.456692 16.7661 0.289648 16.987 0.175212 17.2308C0.0607747 17.4745 0.00122055 17.7363 0 18.0009V36.0002C0 37.061 0.468252 38.0784 1.30175 38.8285C2.13524 39.5786 3.2657 40 4.44444 40ZM15.5555 36.0002V26.0006H24.4444V36.0002H15.5555ZM4.44444 18.8208L20 4.82139L35.5555 18.8208V36.0002H28.8889V26.0006C28.8889 24.9397 28.4206 23.9224 27.5871 23.1722C26.7536 22.4221 25.6232 22.0007 24.4444 22.0007H15.5555C14.3768 22.0007 13.2463 22.4221 12.4128 23.1722C11.5794 23.9224 11.1111 24.9397 11.1111 26.0006V36.0002H4.44444V18.8208Z" fill="white"/>
</svg>
