<svg width="100" height="100" viewBox="0 0 100 100" fill="none" xmlns="http://www.w3.org/2000/svg">
<g clip-path="url(#clip0_1_56)">
<path d="M17.7083 -2.24574e-05H82.2916C84.6178 -0.00227105 86.9215 0.465978 89.0709 1.37793C91.2204 2.28988 93.1734 3.62762 94.8182 5.3146C96.463 7.00159 97.7673 9.00469 98.6565 11.2093C99.5456 13.4138 100.002 15.7766 100 18.1624V81.8376C100.002 84.2233 99.5456 86.5861 98.6565 88.7907C97.7673 90.9953 96.463 92.9984 94.8182 94.6853C93.1734 96.3723 91.2204 97.7101 89.0709 98.622C86.9215 99.534 84.6178 100.002 82.2916 100H17.7083C15.3822 100.002 13.0785 99.534 10.929 98.622C8.77957 97.7101 6.82655 96.3723 5.18174 94.6853C3.53693 92.9984 2.23263 90.9953 1.34348 88.7907C0.454328 86.5861 -0.00221503 84.2233 -2.26589e-05 81.8376V18.1624C-0.00221503 15.7766 0.454328 13.4138 1.34348 11.2093C2.23263 9.00469 3.53693 7.00159 5.18174 5.3146C6.82655 3.62762 8.77957 2.28988 10.929 1.37793C13.0785 0.465978 15.3822 -0.00227105 17.7083 -2.24574e-05Z" fill="#330000"/>
<path d="M48.4583 60H32.9583L29.7917 70.0427C29.7563 70.2258 29.6554 70.3887 29.509 70.4994C29.3625 70.6101 29.181 70.6606 29 70.641H21.1667C20.7083 70.641 20.5833 70.3846 20.7083 69.8718L34.125 30.2564C34.25 29.8291 34.375 29.359 34.5417 28.8462C34.7094 27.9303 34.7931 27.0003 34.7917 26.0684C34.7792 25.9614 34.8066 25.8534 34.8684 25.7663C34.9302 25.6791 35.0219 25.6191 35.125 25.5983H45.9167C46.25 25.5983 46.4167 25.7265 46.4583 25.9402L61.6667 69.9573C61.7917 70.4274 61.6667 70.641 61.25 70.641H52.5417C52.3944 70.6556 52.2468 70.6164 52.1249 70.5305C52.003 70.4445 51.9145 70.3172 51.875 70.1709L48.4583 60ZM35.375 51.3248H45.9583C45.7083 50.4274 45.375 49.359 45 48.2479C44.625 47.1368 44.25 45.8547 43.875 44.5727C43.5 43.2906 43.0833 41.9658 42.6667 40.641C42.25 39.3162 41.875 38.0769 41.5417 36.8376C41.2083 35.5983 40.9167 34.5299 40.625 33.5043H40.5417C40.1672 35.3669 39.6943 37.2072 39.125 39.0171C38.5 41.0684 37.875 43.2051 37.2083 45.3419C36.625 47.5214 36 49.5299 35.375 51.3248Z" fill="#FF9A00"/>
<path d="M70.75 32.906C70.0661 32.9213 69.386 32.797 68.7493 32.5402C68.1127 32.2834 67.5322 31.8993 67.0417 31.4103C66.0871 30.3397 65.5786 28.9286 65.625 27.4786C65.6004 26.7722 65.7213 26.0683 65.9797 25.4129C66.2382 24.7576 66.6284 24.1655 67.125 23.6752C68.1265 22.7043 69.4553 22.1684 70.8333 22.1795C72.4583 22.1795 73.7084 22.6923 74.625 23.6752C75.5481 24.7114 76.0413 26.0757 76 27.4786C76.0254 28.2007 75.9095 28.9206 75.659 29.5959C75.4085 30.2712 75.0286 30.8881 74.5417 31.4103C74.0507 31.9232 73.4582 32.3221 72.8041 32.5801C72.15 32.8382 71.4496 32.9493 70.75 32.906ZM66.0834 70V37.094C66.0834 36.6667 66.25 36.4957 66.625 36.4957H74.875C75.25 36.4957 75.4167 36.7094 75.4167 37.094V70C75.4167 70.4701 75.25 70.6838 74.875 70.6838H66.7084C66.6208 70.6912 66.5327 70.6782 66.4507 70.6458C66.3687 70.6134 66.2949 70.5624 66.2348 70.4967C66.1748 70.431 66.1299 70.3521 66.1037 70.2661C66.0774 70.1801 66.0705 70.0892 66.0834 70Z" fill="#FF9A00"/>
</g>
<defs>
<clipPath id="clip0_1_56">
<rect width="100" height="100" fill="white"/>
</clipPath>
</defs>
</svg>
