<svg width="46" height="46" viewBox="0 0 46 46" fill="none" xmlns="http://www.w3.org/2000/svg">
<path fill-rule="evenodd" clip-rule="evenodd" d="M21.9333 37.3335L13.6377 41.891C12.5172 42.5066 11.1313 42.0564 10.5422 40.8855C10.3076 40.4192 10.2267 39.8851 10.3119 39.3659L11.8962 29.7128C12.0237 28.9358 11.7772 28.1429 11.237 27.5926L4.52569 20.7563C3.61916 19.8329 3.60061 18.3163 4.48426 17.369C4.83613 16.9918 5.29719 16.7463 5.79606 16.6705L15.0708 15.2621C15.8174 15.1488 16.4628 14.6588 16.7967 13.9518L20.9445 5.16914C21.5047 3.98282 22.8792 3.49575 24.0144 4.08123C24.4665 4.31438 24.8324 4.69675 25.0555 5.16914L29.2033 13.9518C29.5372 14.6588 30.1826 15.1488 30.9292 15.2621L40.2039 16.6705C41.4567 16.8607 42.3247 18.0763 42.1427 19.3854C42.0702 19.9068 41.8353 20.3886 41.4743 20.7563L34.763 27.5926C34.2228 28.1429 33.9762 28.9358 34.1038 29.7128L35.6881 39.3659C35.9021 40.6698 35.0641 41.9081 33.8164 42.1317C33.3195 42.2208 32.8084 42.1362 32.3622 41.891L24.0666 37.3335C23.3989 36.9666 22.6011 36.9666 21.9333 37.3335ZM20.0875 33.9738C21.9048 32.9754 24.0952 32.9754 25.9124 33.9738L31.4146 36.9967L30.3211 30.3337C29.9968 28.358 30.6258 26.3351 32.0275 24.9072L36.8127 20.0328L30.3537 19.052C28.3318 18.745 26.6104 17.4381 25.7371 15.5888L23 9.79323L20.2629 15.5888C19.3895 17.4381 17.6682 18.745 15.6463 19.052L9.18726 20.0328L13.9724 24.9072C15.3742 26.3351 16.0032 28.358 15.6789 30.3337L14.5853 36.9967L20.0875 33.9738Z" fill="white"/>
</svg>
