<svg width="38" height="38" viewBox="0 0 38 38" fill="none" xmlns="http://www.w3.org/2000/svg">
<path d="M18.6875 0C8.36715 0 0 8.36715 0 18.6875C0 29.0079 8.36715 37.375 18.6875 37.375C29.0079 37.375 37.375 29.0079 37.375 18.6875C37.375 8.36715 29.0079 0 18.6875 0ZM21.8599 26.2964C21.999 26.4285 22.1102 26.5872 22.187 26.763C22.2639 26.9388 22.3047 27.1283 22.3072 27.3201C22.3096 27.512 22.2736 27.7024 22.2013 27.8801C22.1291 28.0579 22.0219 28.2193 21.8862 28.355C21.7506 28.4907 21.5891 28.5978 21.4114 28.6701C21.2336 28.7424 21.0432 28.7784 20.8514 28.7759C20.6595 28.7734 20.4701 28.7326 20.2943 28.6558C20.1184 28.579 19.9598 28.4677 19.8276 28.3286L11.2026 19.7036C10.9332 19.4341 10.7819 19.0686 10.7819 18.6875C10.7819 18.3064 10.9332 17.9409 11.2026 17.6714L19.8276 9.04637C20.0994 8.78816 20.4613 8.64634 20.8361 8.65114C21.211 8.65594 21.5691 8.80698 21.8342 9.07206C22.0993 9.33714 22.2503 9.69528 22.2551 10.0701C22.2599 10.445 22.1181 10.8069 21.8599 11.0786L14.2519 18.6875L21.8599 26.2964Z" fill="white"/>
</svg>
