<svg width="100" height="100" viewBox="0 0 100 100" fill="none" xmlns="http://www.w3.org/2000/svg">
<g clip-path="url(#clip0_1_44)">
<path d="M17.7083 -2.24574e-05H82.2917C84.6178 -0.00227105 86.9215 0.465978 89.0709 1.37793C91.2204 2.28988 93.1734 3.62762 94.8182 5.3146C96.463 7.00159 97.7673 9.00469 98.6565 11.2093C99.5456 13.4138 100.002 15.7766 100 18.1624V81.8376C100.002 84.2233 99.5456 86.5861 98.6565 88.7907C97.7673 90.9953 96.463 92.9984 94.8182 94.6853C93.1734 96.3723 91.2204 97.7101 89.0709 98.622C86.9215 99.534 84.6178 100.002 82.2917 100H17.7083C15.3822 100.002 13.0785 99.534 10.929 98.622C8.77958 97.7101 6.82656 96.3723 5.18175 94.6853C3.53695 92.9984 2.23264 90.9953 1.34349 88.7907C0.454344 86.5861 -0.00219977 84.2233 -7.40014e-06 81.8376V18.1624C-0.00219977 15.7766 0.454344 13.4138 1.34349 11.2093C2.23264 9.00469 3.53695 7.00159 5.18175 5.3146C6.82656 3.62762 8.77958 2.28988 10.929 1.37793C13.0785 0.465978 15.3822 -0.00227105 17.7083 -2.24574e-05Z" fill="#001E36"/>
<path d="M22.5 70.1282V26.1538C22.5 25.8547 22.625 25.6837 22.9167 25.6837C23.625 25.6837 24.2917 25.6837 25.25 25.641C26.2083 25.5983 27.2917 25.5983 28.4167 25.5555C29.5417 25.5128 30.75 25.5128 32.0417 25.4701C33.3333 25.4273 34.5833 25.4273 35.8333 25.4273C39.25 25.4273 42.0833 25.8547 44.4167 26.7521C46.5083 27.4807 48.4156 28.6777 50 30.2564C51.3426 31.6379 52.38 33.2994 53.0417 35.1282C53.6724 36.9091 53.9967 38.7889 54 40.6837C54 44.359 53.1667 47.3932 51.5 49.7863C49.8256 52.1762 47.4878 53.9931 44.7917 55C41.9583 56.0684 38.8333 56.453 35.4167 56.453C34.4167 56.453 33.75 56.453 33.3333 56.4102C32.9167 56.3675 32.3333 56.3675 31.5417 56.3675V70.0855C31.551 70.1558 31.5464 70.2273 31.5282 70.2958C31.5101 70.3643 31.4787 70.4283 31.436 70.4841C31.3932 70.5399 31.34 70.5863 31.2794 70.6206C31.2188 70.6549 31.1521 70.6764 31.0833 70.6837H23C22.6667 70.6837 22.5 70.5128 22.5 70.1282ZM31.5833 33.9316V48.2906C32.1667 48.3333 32.7083 48.3761 33.2083 48.3761H35.4167C37.0433 48.3781 38.6601 48.1185 40.2083 47.6068C41.5366 47.2062 42.7233 46.4195 43.625 45.3419C44.5 44.2735 44.9167 42.8205 44.9167 40.9402C44.9559 39.6047 44.6235 38.2855 43.9583 37.1367C43.2636 36.0272 42.2418 35.1738 41.0417 34.7008C39.4774 34.0725 37.8037 33.7815 36.125 33.8461C35.0417 33.8461 34.0833 33.8461 33.2917 33.8889C32.7221 33.8507 32.1504 33.865 31.5833 33.9316Z" fill="#31A8FF"/>
<path d="M80 45.6838C78.7419 45.0042 77.3947 44.5148 76 44.2308C74.4683 43.875 72.9038 43.6887 71.3333 43.6752C70.4901 43.6454 69.6472 43.7462 68.8333 43.9744C68.3143 44.0851 67.854 44.3897 67.5417 44.8291C67.3311 45.1758 67.216 45.5745 67.2083 45.9829C67.2277 46.3895 67.3737 46.7789 67.625 47.094C68.0199 47.5691 68.501 47.961 69.0417 48.2479C70 48.7607 71 49.2308 72 49.6581C74.2511 50.4354 76.4049 51.4825 78.4167 52.7778C79.785 53.6602 80.9165 54.8795 81.7083 56.3248C82.3779 57.6881 82.7072 59.2005 82.6667 60.7265C82.7005 62.7464 82.1336 64.7289 81.0417 66.4102C79.8795 68.1162 78.2578 69.4378 76.375 70.2137C74.3333 71.1111 71.8333 71.5812 68.8333 71.5812C66.9312 71.5891 65.0329 71.403 63.1667 71.0256C61.6971 70.7652 60.2679 70.3053 58.9167 69.6581C58.7714 69.5834 58.6506 69.4667 58.5692 69.3224C58.4877 69.1781 58.4492 69.0126 58.4583 68.8461V61.4102C58.4547 61.3372 58.4679 61.2643 58.4969 61.1975C58.5258 61.1307 58.5697 61.0718 58.625 61.0256C58.6837 60.9906 58.7519 60.9758 58.8194 60.9835C58.8869 60.9912 58.9502 61.0209 59 61.0684C60.605 62.0388 62.3484 62.7454 64.1667 63.1624C65.7721 63.5908 67.4245 63.8063 69.0833 63.8034C70.6667 63.8034 71.7917 63.5897 72.5417 63.2051C72.8762 63.0466 73.1597 62.7936 73.359 62.4757C73.5582 62.1578 73.665 61.7882 73.6667 61.4102C73.6667 60.812 73.3333 60.2564 72.6667 59.7008C72 59.1453 70.625 58.5043 68.5833 57.6923C66.4889 56.9354 64.4998 55.901 62.6667 54.6154C61.361 53.661 60.2792 52.42 59.5 50.9829C58.835 49.6332 58.5058 48.1357 58.5417 46.6239C58.5478 44.8004 59.0375 43.0129 59.9583 41.453C61.0168 39.7374 62.5361 38.3721 64.3333 37.5214C66.2917 36.4957 68.75 36.0256 71.7083 36.0256C73.4373 36.0261 75.164 36.1547 76.875 36.4102C78.1052 36.581 79.3093 36.9113 80.4583 37.3932C80.6414 37.4597 80.7913 37.598 80.875 37.7778C80.923 37.9446 80.951 38.1168 80.9583 38.2906V45.2564C80.959 45.3394 80.9405 45.4215 80.9042 45.4958C80.868 45.57 80.8152 45.6345 80.75 45.6838C80.5076 45.7731 80.2424 45.7731 80 45.6838Z" fill="#31A8FF"/>
</g>
<defs>
<clipPath id="clip0_1_44">
<rect width="100" height="100" fill="white"/>
</clipPath>
</defs>
</svg>
