<svg width="38" height="38" viewBox="0 0 38 38" fill="none" xmlns="http://www.w3.org/2000/svg">
<path d="M18.6875 0C14.9915 0 11.3784 1.096 8.30529 3.14941C5.23215 5.20282 2.83692 8.12141 1.42251 11.5361C0.008097 14.9508 -0.361978 18.7082 0.359084 22.3333C1.08014 25.9583 2.85996 29.2881 5.47345 31.9016C8.08694 34.5151 11.4167 36.2949 15.0418 37.0159C18.6668 37.737 22.4242 37.3669 25.8389 35.9525C29.2536 34.5381 32.1722 32.1429 34.2256 29.0697C36.279 25.9966 37.375 22.3835 37.375 18.6875C37.3693 13.733 35.3986 8.98311 31.8952 5.47977C28.3919 1.97642 23.642 0.0057263 18.6875 0ZM25.2349 19.8835L16.6099 25.6335C16.3934 25.7781 16.1418 25.8612 15.8818 25.8739C15.6219 25.8865 15.3633 25.8284 15.1339 25.7056C14.9044 25.5827 14.7126 25.3999 14.5789 25.1766C14.4453 24.9532 14.3748 24.6978 14.375 24.4375V12.9375C14.3748 12.6772 14.4453 12.4218 14.5789 12.1984C14.7126 11.9751 14.9044 11.7923 15.1339 11.6694C15.3633 11.5466 15.6219 11.4885 15.8818 11.5011C16.1418 11.5138 16.3934 11.5969 16.6099 11.7415L25.2349 17.4915C25.4318 17.6227 25.5932 17.8006 25.7049 18.0092C25.8166 18.2179 25.875 18.4508 25.875 18.6875C25.875 18.9242 25.8166 19.1571 25.7049 19.3658C25.5932 19.5744 25.4318 19.7523 25.2349 19.8835Z" fill="white"/>
</svg>
