<svg width="38" height="38" viewBox="0 0 38 38" fill="none" xmlns="http://www.w3.org/2000/svg">
<path d="M18.6875 37.375C29.0079 37.375 37.375 29.0079 37.375 18.6875C37.375 8.36715 29.0079 0 18.6875 0C8.36715 0 0 8.36715 0 18.6875C0 29.0079 8.36715 37.375 18.6875 37.375ZM15.5151 11.0786C15.376 10.9465 15.2648 10.7878 15.188 10.612C15.1111 10.4362 15.0703 10.2467 15.0678 10.0549C15.0654 9.86302 15.1014 9.67262 15.1737 9.49488C15.2459 9.31715 15.3531 9.15569 15.4888 9.02001C15.6244 8.88434 15.7859 8.77719 15.9636 8.7049C16.1414 8.63261 16.3318 8.59664 16.5236 8.59909C16.7155 8.60155 16.9049 8.64239 17.0807 8.71921C17.2566 8.79603 17.4152 8.90726 17.5474 9.04637L26.1724 17.6714C26.4418 17.9409 26.5931 18.3064 26.5931 18.6875C26.5931 19.0686 26.4418 19.4341 26.1724 19.7036L17.5474 28.3286C17.2756 28.5868 16.9137 28.7287 16.5389 28.7239C16.164 28.7191 15.8059 28.568 15.5408 28.3029C15.2757 28.0379 15.1247 27.6797 15.1199 27.3049C15.1151 26.93 15.2569 26.5681 15.5151 26.2964L23.1231 18.6875L15.5151 11.0786Z" fill="white"/>
</svg>
